<?xml version="1.0" standalone="no"?>
<!DOCTYPE svg PUBLIC "-//W3C//DTD SVG 20010904//EN"
 "http://www.w3.org/TR/2001/REC-SVG-20010904/DTD/svg10.dtd">
<svg version="1.0" xmlns="http://www.w3.org/2000/svg"
 width="512.000000pt" height="512.000000pt" viewBox="0 0 512.000000 512.000000"
 preserveAspectRatio="xMidYMid meet">
<g transform="translate(0.000000,512.000000) scale(0.100000,-0.100000)"
fill="#000000" stroke="none">
<path d="M0 2560 l0 -2560 2560 0 2560 0 0 2560 0 2560 -2560 0 -2560 0 0
-2560z m3130 568 l0 -713 -207 -207 c-114 -115 -211 -208 -215 -208 -5 0 -8
414 -8 920 l0 920 215 0 215 0 0 -712z m-710 -398 c0 -297 -3 -540 -7 -540 -5
1 -55 41 -113 90 l-104 88 -66 -58 c-36 -32 -74 -68 -85 -80 -11 -12 -28 -26
-37 -31 -17 -9 -18 18 -18 531 l0 540 215 0 215 0 0 -540z m-710 -418 l0 -387
-208 -208 c-114 -114 -211 -207 -215 -207 -4 0 -7 268 -7 595 l0 595 215 0
215 0 0 -388z m2270 36 l0 -353 -125 125 -125 125 -213 -210 c-116 -116 -348
-345 -514 -509 l-301 -299 -148 129 c-263 230 -296 259 -321 278 l-23 18 -113
-106 c-61 -58 -182 -173 -267 -256 l-155 -149 -195 -1 -196 0 266 262 c146
145 351 348 457 452 l191 189 252 -213 252 -212 409 408 c225 225 409 413 409
419 0 5 -55 65 -122 132 l-123 123 353 0 352 0 0 -352z"/>
</g>
</svg>
